<?xml version="1.0" encoding="UTF-8"?>
<svg aria-hidden="true" focusable="false" role="presentation" xmlns="http://www.w3.org/2000/svg" width="22" height="22" viewBox="0 0 28 28">
<path fill="#fff" fill-rule="evenodd" d="M19.825 11.5h1.744c.003.583.006 1.17.012 1.753.583.006 1.17.006 1.753.012v1.744c-.583.006-1.167.009-1.753.015-.006.586-.009 1.17-.012 1.753h-1.747c-.006-.583-.006-1.167-.012-1.75l-1.753-.018v-1.744c.583-.006 1.167-.009 1.753-.012.003-.586.009-1.17.015-1.753zM4.016 13.833C4.07 10.67 6.977 7.9 10.141 8.005c1.516-.07 2.94.59 4.102 1.516a21.863 21.863 0 0 1-1.557 1.612c-1.396-.964-3.38-1.24-4.776-.126-1.997 1.381-2.088 4.641-.167 6.128 1.867 1.694 5.397.853 5.913-1.742-1.17-.017-2.342 0-3.512-.038-.003-.698-.006-1.396-.003-2.093a555.11 555.11 0 0 1 5.87.006c.117 1.642-.1 3.389-1.109 4.746-1.527 2.15-4.594 2.777-6.986 1.856-2.401-.915-4.102-3.45-3.9-6.037z"/>
</svg>