<?xml version="1.0" encoding="UTF-8"?>
<svg width="17px" height="22px" viewBox="0 0 17 22" version="1.1" xmlns="http://www.w3.org/2000/svg" xmlns:xlink="http://www.w3.org/1999/xlink">
    <!-- Generator: Sketch 46.2 (44496) - http://www.bohemiancoding.com/sketch -->
    <title>pdf_ic</title>
    <desc>Created with Sketch.</desc>
    <defs></defs>
    <g id="PDP" stroke="none" stroke-width="1" fill="none" fill-rule="evenodd">
        <g id="isons" transform="translate(-95.000000, -90.000000)">
            <g id="Group-8-Copy" transform="translate(95.000000, 90.000000)">
                <g id="Group">
                    <polygon id="Rectangle-15" fill="#DC383E" points="0 0 10.9725522 0 17 6.063435 17 22 0 22"></polygon>
                    <path d="M13.8381317,14.1596575 C13.909281,14.230693 13.975059,14.3347175 13.9856329,14.4188279 C14.0211232,14.7023377 13.9946039,14.9792382 13.8638917,15.1802468 C13.797495,15.2824322 13.6885775,15.3577494 13.5593558,15.3927212 C13.4755514,15.4153652 13.3724271,15.427032 13.252795,15.427032 C12.5790139,15.427032 11.511493,15.0801879 10.6435277,14.5807842 C9.50457624,14.7548672 8.20501862,15.0704752 7.06359244,15.4501932 C6.07498262,17.2131496 5.35733074,18 4.7391754,18 C4.6238179,18 4.51121639,17.9722985 4.40443618,17.9176425 L4.15828206,17.7910602 C4.00386275,17.7008578 3.98125245,17.5060849 4.01162449,17.35387 C4.10704331,16.8768517 4.68217159,16.2757224 5.55008069,15.7462033 C5.65238946,15.6829552 6.08856567,15.4472334 6.10709823,15.4372333 L6.36160466,15.2997313 C6.60809625,14.8687769 6.88001035,14.3600626 7.17968112,13.7608012 L7.21671813,13.6866334 C7.50156848,13.1164528 7.82441199,12.4701504 8.08203999,11.8284171 L8.17414038,11.5996494 C7.81434422,10.195089 7.61580109,9.11064814 7.80821357,8.38575267 C7.87151677,8.15462866 8.11266513,8 8.40853939,8 L8.41281398,8.00008621 L8.56841442,8.00514375 C8.83374792,7.99339071 9.00298766,8.20893978 9.08929487,8.41236225 L9.11685468,8.48471961 C9.13932437,8.55109987 9.1464393,8.57587034 9.15799755,8.66127387 C9.24199873,9.28398397 8.92466718,11.1257633 8.92466718,11.1257633 C8.9095374,11.1944999 8.89328274,11.2618572 8.87418773,11.3384962 C9.16722165,12.1589965 9.63748203,12.9051567 10.2008552,13.4427219 C10.4103098,13.6427248 10.6770775,13.8088191 10.9359429,13.9614362 C11.5140521,13.8787339 12.0636735,13.8376413 12.5203227,13.8427851 C13.1949194,13.851837 13.6382387,13.9584189 13.8381317,14.1596575 Z M4.61868966,17.5005388 C4.92263501,17.3599908 5.38465557,16.9118522 6.07457891,15.7874682 C5.98101616,15.8783028 5.878848,15.9761491 5.83736767,16.0105174 C5.17761952,16.5629679 4.73140366,17.1855917 4.61868966,17.5005388 Z M8.5264176,8.3160965 C8.43521712,8.3160965 8.44351319,9.04285981 8.44351319,9.04285981 C8.44351319,9.42306642 8.49804225,10.0045403 8.61086874,10.3734536 C8.74709296,10.1242834 8.85691037,9.78752568 8.84754566,9.3076912 C8.83815282,8.82788546 8.72512947,8.3160965 8.5264176,8.3160965 Z M7.3465486,14.8527134 C8.1068057,14.5541172 8.97029961,14.3084527 9.96937091,14.106467 C9.90117444,14.0533341 9.83624015,14.0000575 9.77496175,13.9470682 C9.28366592,13.5221196 8.86574105,12.9917384 8.53015816,12.3678788 C8.36142462,12.8137186 8.13487171,13.3561402 7.7761442,14.0493398 C7.62898043,14.3325048 7.48496635,14.5995201 7.3465486,14.8527134 Z M13.6587017,14.8182894 C13.7195301,14.7794096 13.7150587,14.5915333 13.3601558,14.499032 C13.0052529,14.4065306 12.8977415,14.4081399 12.5347957,14.4081399 C12.3365057,14.4081399 12.1153804,14.4173929 11.874232,14.4356403 C12.5018645,14.7105867 12.9495709,14.8796409 13.31142,14.8796409 C13.4235434,14.8796409 13.5978451,14.8571693 13.6587017,14.8182894 Z" id="Combined-Shape" stroke="#FFFFFF" stroke-width="0.100000001" fill="#FFFFFF"></path>
                    <polygon id="Rectangle-16" fill="#A72124" points="11 0 17 6 11 6"></polygon>
                </g>
            </g>
        </g>
    </g>
</svg>