<?xml version="1.0" encoding="UTF-8"?>
<svg aria-hidden="true" focusable="false" role="presentation" xmlns="http://www.w3.org/2000/svg" width="22" height="22" viewBox="0 0 28 28">
<path fill="#fff" fill-rule="evenodd" d="M13.914 6a7.913 7.913 0 0 0-2.885 15.281c-.07-.626-.132-1.586.028-2.27.144-.618.928-3.933.928-3.933s-.238-.475-.238-1.175c0-1.098.64-1.922 1.433-1.922.675 0 1 .507 1 1.115 0 .68-.43 1.694-.654 2.634-.188.789.395 1.43 1.172 1.43 1.405 0 2.487-1.482 2.487-3.622 0-1.894-1.361-3.219-3.306-3.219-2.251 0-3.571 1.689-3.571 3.434 0 .68.26 1.409.587 1.805.065.08.074.149.056.228-.06.25-.194.787-.22.897-.035.144-.114.176-.266.106-.987-.46-1.606-1.905-1.606-3.066 0-2.497 1.814-4.787 5.23-4.787 2.744 0 4.878 1.955 4.878 4.57 0 2.726-1.72 4.922-4.108 4.922-.801 0-1.555-.418-1.813-.91l-.495 1.88c-.178.688-.66 1.55-.983 2.075a7.914 7.914 0 0 0 10.258-7.56 7.914 7.914 0 0 0-7.913-7.912V6z"/>
</svg>