<?xml version="1.0" encoding="UTF-8"?>
<svg aria-hidden="true" focusable="false" role="presentation" xmlns="http://www.w3.org/2000/svg" width="22" height="22" viewBox="0 0 28 28">
<path fill="#fff" fill-rule="evenodd" d="M20.218 9.925a3.083 3.083 0 0 0 1.351-1.7 6.156 6.156 0 0 1-1.952.746 3.074 3.074 0 0 0-5.238 2.804 8.727 8.727 0 0 1-6.336-3.212 3.073 3.073 0 0 0 .951 4.104 3.062 3.062 0 0 1-1.392-.385v.039c0 1.49 1.06 2.732 2.466 3.014a3.078 3.078 0 0 1-1.389.053 3.077 3.077 0 0 0 2.872 2.135A6.168 6.168 0 0 1 7 18.795a8.7 8.7 0 0 0 4.712 1.382c5.654 0 8.746-4.685 8.746-8.747 0-.133-.003-.265-.009-.397a6.248 6.248 0 0 0 1.534-1.592 6.146 6.146 0 0 1-1.765.484z"/>
</svg>